<mxfile host="65bd71144e">
    <diagram id="P8h9pr2c7ljLoOqbwqw8" name="PÃ¡gina-1">
        <mxGraphModel dx="857" dy="649" grid="1" gridSize="10" guides="1" tooltips="1" connect="1" arrows="1" fold="1" page="1" pageScale="1" pageWidth="827" pageHeight="1169" math="0" shadow="0">
            <root>
                <mxCell id="0"/>
                <mxCell id="1" parent="0"/>
                <mxCell id="7" style="edgeStyle=none;html=1;entryX=0.25;entryY=0;entryDx=0;entryDy=0;" edge="1" parent="1" source="2" target="5">
                    <mxGeometry relative="1" as="geometry"/>
                </mxCell>
                <mxCell id="2" value="&lt;font style=&quot;&quot;&gt;&lt;font style=&quot;font-size: 10px;&quot;&gt;&amp;lt;&amp;lt;Interface&amp;gt;&amp;gt;&lt;br&gt;ReprodutorMusical&lt;/font&gt;&lt;br&gt;&lt;br&gt;&lt;div style=&quot;font-size: 10px; text-align: left;&quot;&gt;&lt;span style=&quot;background-color: initial;&quot;&gt;&lt;br&gt;&lt;/span&gt;&lt;/div&gt;&lt;div style=&quot;font-size: 10px; text-align: left;&quot;&gt;&lt;span style=&quot;background-color: initial;&quot;&gt;+ tocar() : void&lt;/span&gt;&lt;/div&gt;&lt;div style=&quot;font-size: 10px; text-align: left;&quot;&gt;&lt;span style=&quot;background-color: initial;&quot;&gt;+ pausar() : void&lt;/span&gt;&lt;/div&gt;&lt;div style=&quot;font-size: 10px; text-align: left;&quot;&gt;&lt;span style=&quot;background-color: initial;&quot;&gt;+ selecionarMusica(musica: String)&lt;/span&gt;&lt;/div&gt;&lt;div style=&quot;text-align: left;&quot;&gt;&lt;span style=&quot;font-size: 10px;&quot;&gt;&lt;br&gt;&lt;/span&gt;&lt;/div&gt;&lt;div style=&quot;text-align: left;&quot;&gt;&lt;span style=&quot;font-size: 10px;&quot;&gt;&lt;br&gt;&lt;/span&gt;&lt;/div&gt;&lt;/font&gt;" style="rounded=0;whiteSpace=wrap;html=1;" vertex="1" parent="1">
                    <mxGeometry x="150" y="50" width="170" height="120" as="geometry"/>
                </mxCell>
                <mxCell id="5" value="Iphone&lt;br&gt;&lt;br&gt;&lt;div style=&quot;text-align: left;&quot;&gt;&lt;span style=&quot;background-color: initial;&quot;&gt;+reprodutorMusical : &lt;/span&gt;&lt;span style=&quot;background-color: initial;&quot;&gt;ReprodutorMusical&lt;/span&gt;&lt;/div&gt;&lt;div style=&quot;text-align: left;&quot;&gt;&lt;span style=&quot;background-color: initial;&quot;&gt;+aparelhoTelefonico: &lt;/span&gt;&lt;span style=&quot;background-color: initial;&quot;&gt;AparelhoTelefonico&lt;/span&gt;&lt;/div&gt;&lt;div style=&quot;text-align: left;&quot;&gt;&lt;span style=&quot;background-color: initial;&quot;&gt;+navegadorInternet : &lt;/span&gt;&lt;span style=&quot;background-color: initial;&quot;&gt;NavegadorInternet&lt;/span&gt;&lt;/div&gt;" style="rounded=0;whiteSpace=wrap;html=1;" vertex="1" parent="1">
                    <mxGeometry x="287.5" y="290" width="315" height="100" as="geometry"/>
                </mxCell>
                <mxCell id="18" style="edgeStyle=none;html=1;exitX=0.5;exitY=1;exitDx=0;exitDy=0;entryX=0.5;entryY=0;entryDx=0;entryDy=0;fontSize=10;" edge="1" parent="1" source="16" target="5">
                    <mxGeometry relative="1" as="geometry"/>
                </mxCell>
                <mxCell id="16" value="&lt;font style=&quot;&quot;&gt;&lt;font style=&quot;font-size: 10px;&quot;&gt;&amp;lt;&amp;lt;Interface&amp;gt;&amp;gt;&lt;br&gt;AparelhoTelefonico&lt;/font&gt;&lt;br&gt;&lt;br&gt;&lt;div style=&quot;font-size: 10px; text-align: left;&quot;&gt;&lt;span style=&quot;background-color: initial;&quot;&gt;&lt;br&gt;&lt;/span&gt;&lt;/div&gt;&lt;div style=&quot;font-size: 10px; text-align: left;&quot;&gt;&lt;span style=&quot;background-color: initial;&quot;&gt;+ ligar(numero: String) : void&lt;/span&gt;&lt;/div&gt;&lt;div style=&quot;font-size: 10px; text-align: left;&quot;&gt;&lt;span style=&quot;background-color: initial;&quot;&gt;+ atender() : void&lt;/span&gt;&lt;/div&gt;&lt;div style=&quot;font-size: 10px; text-align: left;&quot;&gt;&lt;span style=&quot;background-color: initial;&quot;&gt;+ iniciarCorreioVoz(musica: String)&lt;/span&gt;&lt;/div&gt;&lt;div style=&quot;text-align: left;&quot;&gt;&lt;span style=&quot;font-size: 10px;&quot;&gt;&lt;br&gt;&lt;/span&gt;&lt;/div&gt;&lt;div style=&quot;text-align: left;&quot;&gt;&lt;span style=&quot;font-size: 10px;&quot;&gt;&lt;br&gt;&lt;/span&gt;&lt;/div&gt;&lt;/font&gt;" style="rounded=0;whiteSpace=wrap;html=1;" vertex="1" parent="1">
                    <mxGeometry x="360" y="50" width="170" height="120" as="geometry"/>
                </mxCell>
                <mxCell id="19" style="edgeStyle=none;html=1;entryX=0.75;entryY=0;entryDx=0;entryDy=0;fontSize=10;" edge="1" parent="1" source="17" target="5">
                    <mxGeometry relative="1" as="geometry"/>
                </mxCell>
                <mxCell id="17" value="&lt;font style=&quot;&quot;&gt;&lt;font style=&quot;font-size: 10px;&quot;&gt;&amp;lt;&amp;lt;Interface&amp;gt;&amp;gt;&lt;br&gt;NavegadorInternet&lt;/font&gt;&lt;br&gt;&lt;br&gt;&lt;div style=&quot;font-size: 10px; text-align: left;&quot;&gt;&lt;span style=&quot;background-color: initial;&quot;&gt;&lt;br&gt;&lt;/span&gt;&lt;/div&gt;&lt;div style=&quot;font-size: 10px; text-align: left;&quot;&gt;&lt;span style=&quot;background-color: initial;&quot;&gt;+ exibirPagina(url: String) : void&lt;/span&gt;&lt;/div&gt;&lt;div style=&quot;font-size: 10px; text-align: left;&quot;&gt;&lt;span style=&quot;background-color: initial;&quot;&gt;+ adicionarNovaAba() : void&lt;/span&gt;&lt;/div&gt;&lt;div style=&quot;font-size: 10px; text-align: left;&quot;&gt;&lt;span style=&quot;background-color: initial;&quot;&gt;+ atualizarPagina(musica: String)&lt;/span&gt;&lt;/div&gt;&lt;div style=&quot;text-align: left;&quot;&gt;&lt;span style=&quot;font-size: 10px;&quot;&gt;&lt;br&gt;&lt;/span&gt;&lt;/div&gt;&lt;div style=&quot;text-align: left;&quot;&gt;&lt;span style=&quot;font-size: 10px;&quot;&gt;&lt;br&gt;&lt;/span&gt;&lt;/div&gt;&lt;/font&gt;" style="rounded=0;whiteSpace=wrap;html=1;" vertex="1" parent="1">
                    <mxGeometry x="570" y="50" width="170" height="120" as="geometry"/>
                </mxCell>
                <mxCell id="20" value="" style="endArrow=none;html=1;exitX=-0.003;exitY=0.282;exitDx=0;exitDy=0;exitPerimeter=0;entryX=1.005;entryY=0.278;entryDx=0;entryDy=0;entryPerimeter=0;" edge="1" parent="1">
                    <mxGeometry width="50" height="50" relative="1" as="geometry">
                        <mxPoint x="359.99999999999994" y="90.47999999999992" as="sourcePoint"/>
                        <mxPoint x="531.36" y="90.00000000000001" as="targetPoint"/>
                    </mxGeometry>
                </mxCell>
                <mxCell id="21" value="" style="endArrow=none;html=1;exitX=-0.003;exitY=0.282;exitDx=0;exitDy=0;exitPerimeter=0;entryX=1.005;entryY=0.278;entryDx=0;entryDy=0;entryPerimeter=0;" edge="1" parent="1">
                    <mxGeometry width="50" height="50" relative="1" as="geometry">
                        <mxPoint x="568.64" y="90.4799999999999" as="sourcePoint"/>
                        <mxPoint x="739.9999999999999" y="90" as="targetPoint"/>
                    </mxGeometry>
                </mxCell>
                <mxCell id="22" value="" style="endArrow=none;html=1;exitX=-0.003;exitY=0.282;exitDx=0;exitDy=0;exitPerimeter=0;entryX=1.005;entryY=0.278;entryDx=0;entryDy=0;entryPerimeter=0;" edge="1" parent="1">
                    <mxGeometry width="50" height="50" relative="1" as="geometry">
                        <mxPoint x="148.64" y="90.4799999999999" as="sourcePoint"/>
                        <mxPoint x="320" y="90.00000000000006" as="targetPoint"/>
                    </mxGeometry>
                </mxCell>
                <mxCell id="23" value="" style="endArrow=none;html=1;exitX=-0.001;exitY=0.318;exitDx=0;exitDy=0;exitPerimeter=0;entryX=1.006;entryY=0.301;entryDx=0;entryDy=0;entryPerimeter=0;" edge="1" parent="1" source="5" target="5">
                    <mxGeometry width="50" height="50" relative="1" as="geometry">
                        <mxPoint x="385" y="320.4799999999999" as="sourcePoint"/>
                        <mxPoint x="500" y="320" as="targetPoint"/>
                    </mxGeometry>
                </mxCell>
            </root>
        </mxGraphModel>
    </diagram>
</mxfile>